<?xml version="1.0" encoding="UTF-8" standalone="no"?>
<svg
   xmlns:dc="http://purl.org/dc/elements/1.1/"
   xmlns:cc="http://creativecommons.org/ns#"
   xmlns:rdf="http://www.w3.org/1999/02/22-rdf-syntax-ns#"
   xmlns:svg="http://www.w3.org/2000/svg"
   xmlns="http://www.w3.org/2000/svg"
   xmlns:sodipodi="http://sodipodi.sourceforge.net/DTD/sodipodi-0.dtd"
   xmlns:inkscape="http://www.inkscape.org/namespaces/inkscape"
   width="5.91111in"
   height="5.91111in"
   viewBox="0 0 532 532"
   version="1.1"
   id="svg3717"
   sodipodi:docname="icon-git.svg"
   inkscape:version="0.92.2 (5c3e80d, 2017-08-06)">
  <metadata
     id="metadata3723">
    <rdf:RDF>
      <cc:Work
         rdf:about="">
        <dc:format>image/svg+xml</dc:format>
        <dc:type
           rdf:resource="http://purl.org/dc/dcmitype/StillImage" />
        <dc:title></dc:title>
      </cc:Work>
    </rdf:RDF>
  </metadata>
  <defs
     id="defs3721" />
  <sodipodi:namedview
     pagecolor="#ffffff"
     bordercolor="#666666"
     borderopacity="1"
     objecttolerance="10"
     gridtolerance="10"
     guidetolerance="10"
     inkscape:pageopacity="0"
     inkscape:pageshadow="2"
     inkscape:window-width="1366"
     inkscape:window-height="705"
     id="namedview3719"
     showgrid="false"
     inkscape:zoom="0.9480735"
     inkscape:cx="283.73328"
     inkscape:cy="283.73328"
     inkscape:window-x="-8"
     inkscape:window-y="-8"
     inkscape:window-maximized="1"
     inkscape:current-layer="svg3717" />
  <path
     id="Sélection"
     fill="none"
     stroke="black"
     stroke-width="1"
     d="M 200.00,462.00            C 200.00,462.00 179.00,464.00 179.00,464.00              157.40,464.03 134.60,462.73 119.30,445.00              111.05,435.43 109.48,424.60 102.94,414.00              99.74,408.82 94.44,401.29 89.96,397.30              89.96,397.30 77.04,387.82 77.04,387.82              74.03,385.03 69.57,380.33 75.08,377.43              84.86,372.27 103.93,383.58 111.00,390.09              126.93,404.77 129.92,424.77 155.00,431.24              162.46,433.16 168.55,432.18 176.00,431.99              181.16,431.85 195.78,429.22 199.44,425.93              201.37,424.19 203.52,413.38 204.81,410.00              208.80,399.61 212.16,397.42 218.00,389.00              189.88,386.72 158.08,377.64 136.00,359.54              131.94,356.20 123.87,348.16 120.76,344.00              106.64,325.10 97.28,293.57 97.00,270.00              96.75,248.32 96.93,234.32 106.31,214.00              109.06,208.03 112.71,202.27 116.63,197.00              118.36,194.67 122.69,189.59 123.21,187.00              123.69,184.57 121.58,179.68 120.90,177.00              119.71,172.33 118.12,162.74 118.01,158.00              117.79,148.19 120.44,136.42 123.14,127.00              124.33,122.85 125.30,117.75 130.04,116.43              134.32,115.24 144.66,118.24 149.00,119.67              156.38,122.10 172.40,128.72 179.00,132.42              183.04,134.69 195.76,142.90 199.00,143.55              201.77,144.10 219.58,139.85 224.00,139.00              234.52,136.97 257.37,134.88 268.00,135.00              268.00,135.00 278.00,136.04 278.00,136.04              278.00,136.04 287.00,136.04 287.00,136.04              287.00,136.04 310.00,139.42 310.00,139.42              310.00,139.42 332.00,143.69 332.00,143.69              336.01,143.30 344.04,137.33 348.00,135.01              357.49,129.46 375.48,120.96 386.00,118.15              389.80,117.14 397.23,115.37 400.96,116.43              405.70,117.79 406.64,122.89 408.00,127.00              411.91,138.83 413.14,147.60 413.00,160.00              412.93,166.09 411.66,172.13 410.12,178.00              409.39,180.77 407.48,185.33 408.34,188.00              409.02,190.12 412.58,193.99 414.10,196.00              417.23,200.13 421.27,206.41 423.68,211.00              431.49,225.85 435.19,245.31 435.00,262.00              435.00,262.00 434.09,272.00 434.09,272.00              432.07,300.86 424.45,330.47 403.91,351.99              382.05,374.89 343.90,386.50 313.00,389.00              319.71,398.49 323.62,400.79 327.64,413.00              331.80,425.62 331.00,437.98 331.00,451.00              331.00,451.00 331.00,506.00 331.00,506.00              331.00,509.13 330.93,511.91 331.68,515.00              335.64,531.30 353.54,523.96 364.00,520.05              391.26,509.85 419.14,492.88 441.00,473.71              477.96,441.30 508.05,395.40 521.57,348.00              529.54,320.06 532.05,293.89 532.00,265.00              532.00,265.00 531.09,253.00 531.09,253.00              529.06,223.45 523.06,195.30 511.28,168.00              498.97,139.46 482.13,112.77 460.91,90.00              391.92,15.94 286.70,-11.16 190.00,16.43              159.87,25.02 128.88,40.91 104.00,59.88              104.00,59.88 83.00,77.58 83.00,77.58              60.97,96.67 36.98,131.37 24.69,158.00              12.10,185.28 3.32,213.93 0.92,244.00              0.92,244.00 0.00,254.00 0.00,254.00              -0.23,274.08 -0.52,294.10 2.43,314.00              10.73,370.00 38.05,422.05 78.00,462.00              99.10,483.10 126.57,502.50 154.00,514.42              162.18,517.98 176.37,524.78 185.00,524.99              195.46,525.24 199.85,521.90 200.00,511.00              200.00,511.00 200.00,462.00 200.00,462.00 Z" />
  <path
     style="stroke-width:1.05477059"
     d="M 183.74103,555.59722 C 97.36872,524.03006 30.026488,448.26027 8.2995311,358.20008 2.523562,334.25817 1.7921748,326.53678 1.80536,289.63999 1.8164948,258.48127 2.0392609,254.12745 4.2518986,241.82395 12.51836,195.85782 30.805454,154.50417 59.813076,116.18026 72.569065,99.327481 81.730348,89.815852 99.648598,74.821358 144.09743,37.625336 191.19573,16.829055 247.65519,9.4689701 c 18.3345,-2.3900957 53.29449,-2.3925156 70.92438,-0.0049 65.07303,8.8128009 120.9389,35.9481069 165.26723,80.2739989 39.02065,39.018491 67.26293,92.022161 76.92516,144.369221 4.00836,21.71611 6.18564,48.26931 5.37517,65.55302 -2.29569,48.95591 -12.66134,87.87382 -33.42136,125.48073 -32.92868,59.65044 -81.79848,103.36476 -142.74586,127.68695 -20.13214,8.03412 -29.30665,7.81199 -34.02564,-0.82376 -1.70253,-3.11563 -1.87845,-7.57135 -1.98822,-50.35536 -0.12476,-48.62768 -0.48279,-53.48257 -4.79837,-65.06445 -1.121,-3.00845 -4.38869,-8.69405 -7.26155,-12.63466 -2.87286,-3.9406 -5.22337,-7.46535 -5.22337,-7.83275 0,-0.36741 3.20386,-0.99622 7.1197,-1.39737 22.59244,-2.31444 51.74481,-12.38024 70.40593,-24.30993 18.04547,-11.53611 32.67664,-30.79719 40.90928,-53.85469 6.68541,-18.72412 11.11114,-52.96136 9.13592,-70.6752 -2.52134,-22.61169 -9.08243,-40.19114 -20.99849,-56.26233 -3.51697,-4.74332 -6.36914,-9.69269 -6.36914,-11.05234 0,-1.35426 0.94929,-6.17399 2.10954,-10.71052 3.87822,-15.16371 2.5989,-36.47483 -3.24353,-54.03138 -3.83352,-11.51969 -8.80997,-13.0832 -25.88905,-8.13388 -10.47422,3.03531 -31.90105,12.94824 -43.17207,19.97316 -11.06242,6.89489 -11.34463,6.95223 -22.6998,4.61216 -22.51215,-4.63931 -38.02606,-6.35004 -58.99205,-6.50507 -22.26109,-0.16459 -32.56387,0.85538 -56.79603,5.6228 l -15.3839,3.02662 -6.89193,-3.76 c -20.64641,-11.26391 -26.97863,-14.37417 -38.14296,-18.73505 -13.06685,-5.10403 -24.99116,-7.74309 -29.67478,-6.56757 -4.11522,1.03285 -5.72558,4.15079 -9.41581,18.23068 -4.19328,15.99924 -4.55096,32.8423 -0.98053,46.17256 1.22906,4.58876 2.23467,9.38068 2.23467,10.6487 0,1.26802 -2.88641,6.29455 -6.41424,11.17005 -11.07487,15.30561 -17.70089,31.56155 -20.04663,49.1813 -1.79964,13.51788 -0.64474,43.56817 2.13943,55.66739 2.75591,11.97636 6.799,24.23504 11.16963,33.86634 15.63608,34.45631 48.97476,56.73785 97.73274,65.31862 4.82144,0.84851 10.30887,1.54339 12.19427,1.54418 1.8854,7.9e-4 3.428,0.31358 3.428,0.69509 0,0.3815 -1.84444,3.11072 -4.09877,6.06494 -5.14501,6.74232 -7.80937,12.07953 -10.053,20.13807 -2.94691,10.58455 -3.69663,11.86771 -7.92182,13.5583 -9.04493,3.61907 -30.66015,5.70051 -39.77598,3.83024 -14.21115,-2.91565 -22.94375,-9.72723 -35.92363,-28.02105 -4.14919,-5.84788 -10.21912,-13.07743 -13.48872,-16.06566 -11.62297,-10.62274 -30.194104,-17.35733 -38.442539,-13.94072 -7.247406,3.00197 -4.722105,8.79064 7.897936,18.10418 10.678771,7.88088 17.670183,16.50841 23.817073,29.39071 2.3529,4.93106 5.73909,12.05076 7.52488,15.82156 6.26005,13.21845 19.91034,23.7866 36.10325,27.95136 9.99807,2.57148 30.55994,3.89881 41.31278,2.66687 5.12391,-0.58704 10.62148,-1.07124 12.21682,-1.076 l 2.90062,-0.009 v 27.45791 c 0,30.1276 -0.60488,33.85267 -5.81888,35.83503 -4.98897,1.8968 -14.31158,1.08993 -22.65992,-1.9612 z"
     id="path3725"
     inkscape:connector-curvature="0"
     transform="scale(0.93750019)" />
</svg>
