<svg id="svg" version="1.1" width="400" height="400" xmlns="http://www.w3.org/2000/svg" xmlns:xlink="http://www.w3.org/1999/xlink" style="display: block;"><g id="svgg"><path id="path0" d="M40.777 60.785 C 19.961 62.970,3.460 78.905,0.391 99.782 C -0.093 103.073,-0.216 289.401,0.263 293.257 C 2.959 314.952,20.251 331.479,42.099 333.240 C 46.436 333.590,347.609 333.596,351.875 333.246 C 372.897 331.524,389.100 316.803,393.422 295.500 C 393.956 292.866,394.272 106.819,393.751 101.625 C 391.681 80.994,376.662 64.967,355.750 61.072 C 353.109 60.580,45.398 60.299,40.777 60.785 M353.310 91.781 C 360.619 94.624,363.489 99.442,363.496 108.880 L 363.500 113.635 280.235 158.578 L 196.970 203.521 113.735 158.595 L 30.500 113.668 30.500 108.597 C 30.500 98.813,34.673 92.731,42.375 91.289 C 43.144 91.145,102.838 91.068,197.625 91.090 L 351.625 91.125 353.310 91.781 M80.229 156.875 C 107.038 177.775,128.979 194.961,128.986 195.066 C 129.001 195.278,32.607 294.081,32.272 294.198 C 32.156 294.238,31.738 293.507,31.343 292.573 L 30.625 290.875 30.561 204.531 C 30.497 118.582,30.499 118.189,30.991 118.531 C 31.263 118.720,53.420 135.975,80.229 156.875 M363.238 290.424 C 362.205 295.438,357.611 300.675,352.821 302.300 L 351.125 302.875 197.802 302.939 C 28.243 303.009,42.678 303.150,39.125 301.390 C 36.103 299.893,31.684 295.165,32.557 294.362 C 32.967 293.984,150.286 210.486,150.496 210.423 C 150.583 210.397,161.044 217.052,173.744 225.214 L 196.834 240.053 197.604 239.666 C 198.028 239.453,208.500 232.761,220.875 224.793 L 243.375 210.307 244.500 211.120 C 253.057 217.298,361.326 294.257,361.382 294.202 C 361.424 294.159,339.710 271.850,313.128 244.625 C 286.546 217.400,264.871 195.051,264.961 194.960 C 265.051 194.869,287.231 177.558,314.250 156.490 L 363.375 118.185 363.440 203.655 C 363.486 263.599,363.425 289.513,363.238 290.424 " stroke="none" fill="#000000" fill-rule="evenodd"></path><path id="path1" d="M40.777 60.785 C 19.961 62.970,3.460 78.905,0.391 99.782 C -0.093 103.073,-0.216 289.401,0.263 293.257 C 2.959 314.952,20.251 331.479,42.099 333.240 C 46.436 333.590,347.609 333.596,351.875 333.246 C 372.897 331.524,389.100 316.803,393.422 295.500 C 393.956 292.866,394.272 106.819,393.751 101.625 C 391.681 80.994,376.662 64.967,355.750 61.072 C 353.109 60.580,45.398 60.299,40.777 60.785 M353.310 91.781 C 360.619 94.624,363.489 99.442,363.496 108.880 L 363.500 113.635 280.235 158.578 L 196.970 203.521 113.735 158.595 L 30.500 113.668 30.500 108.597 C 30.500 98.813,34.673 92.731,42.375 91.289 C 43.144 91.145,102.838 91.068,197.625 91.090 L 351.625 91.125 353.310 91.781 M80.229 156.875 C 107.038 177.775,128.979 194.961,128.986 195.066 C 129.001 195.278,32.607 294.081,32.272 294.198 C 32.156 294.238,31.738 293.507,31.343 292.573 L 30.625 290.875 30.561 204.531 C 30.497 118.582,30.499 118.189,30.991 118.531 C 31.263 118.720,53.420 135.975,80.229 156.875 M363.238 290.424 C 362.205 295.438,357.611 300.675,352.821 302.300 L 351.125 302.875 197.802 302.939 C 28.243 303.009,42.678 303.150,39.125 301.390 C 36.103 299.893,31.684 295.165,32.557 294.362 C 32.967 293.984,150.286 210.486,150.496 210.423 C 150.583 210.397,161.044 217.052,173.744 225.214 L 196.834 240.053 197.604 239.666 C 198.028 239.453,208.500 232.761,220.875 224.793 L 243.375 210.307 244.500 211.120 C 253.057 217.298,361.326 294.257,361.382 294.202 C 361.424 294.159,339.710 271.850,313.128 244.625 C 286.546 217.400,264.871 195.051,264.961 194.960 C 265.051 194.869,287.231 177.558,314.250 156.490 L 363.375 118.185 363.440 203.655 C 363.486 263.599,363.425 289.513,363.238 290.424 " stroke="none" fill="#000000" fill-rule="evenodd"></path><path id="path2" d="M40.777 60.785 C 19.961 62.970,3.460 78.905,0.391 99.782 C -0.093 103.073,-0.216 289.401,0.263 293.257 C 2.959 314.952,20.251 331.479,42.099 333.240 C 46.436 333.590,347.609 333.596,351.875 333.246 C 372.897 331.524,389.100 316.803,393.422 295.500 C 393.956 292.866,394.272 106.819,393.751 101.625 C 391.681 80.994,376.662 64.967,355.750 61.072 C 353.109 60.580,45.398 60.299,40.777 60.785 M353.310 91.781 C 360.619 94.624,363.489 99.442,363.496 108.880 L 363.500 113.635 280.235 158.578 L 196.970 203.521 113.735 158.595 L 30.500 113.668 30.500 108.597 C 30.500 98.813,34.673 92.731,42.375 91.289 C 43.144 91.145,102.838 91.068,197.625 91.090 L 351.625 91.125 353.310 91.781 M80.229 156.875 C 107.038 177.775,128.979 194.961,128.986 195.066 C 129.001 195.278,32.607 294.081,32.272 294.198 C 32.156 294.238,31.738 293.507,31.343 292.573 L 30.625 290.875 30.561 204.531 C 30.497 118.582,30.499 118.189,30.991 118.531 C 31.263 118.720,53.420 135.975,80.229 156.875 M363.238 290.424 C 362.205 295.438,357.611 300.675,352.821 302.300 L 351.125 302.875 197.802 302.939 C 28.243 303.009,42.678 303.150,39.125 301.390 C 36.103 299.893,31.684 295.165,32.557 294.362 C 32.967 293.984,150.286 210.486,150.496 210.423 C 150.583 210.397,161.044 217.052,173.744 225.214 L 196.834 240.053 197.604 239.666 C 198.028 239.453,208.500 232.761,220.875 224.793 L 243.375 210.307 244.500 211.120 C 253.057 217.298,361.326 294.257,361.382 294.202 C 361.424 294.159,339.710 271.850,313.128 244.625 C 286.546 217.400,264.871 195.051,264.961 194.960 C 265.051 194.869,287.231 177.558,314.250 156.490 L 363.375 118.185 363.440 203.655 C 363.486 263.599,363.425 289.513,363.238 290.424 " stroke="none" fill="#000000" fill-rule="evenodd"></path><path id="path3" d="M40.777 60.785 C 19.961 62.970,3.460 78.905,0.391 99.782 C -0.093 103.073,-0.216 289.401,0.263 293.257 C 2.959 314.952,20.251 331.479,42.099 333.240 C 46.436 333.590,347.609 333.596,351.875 333.246 C 372.897 331.524,389.100 316.803,393.422 295.500 C 393.956 292.866,394.272 106.819,393.751 101.625 C 391.681 80.994,376.662 64.967,355.750 61.072 C 353.109 60.580,45.398 60.299,40.777 60.785 M353.310 91.781 C 360.619 94.624,363.489 99.442,363.496 108.880 L 363.500 113.635 280.235 158.578 L 196.970 203.521 113.735 158.595 L 30.500 113.668 30.500 108.597 C 30.500 98.813,34.673 92.731,42.375 91.289 C 43.144 91.145,102.838 91.068,197.625 91.090 L 351.625 91.125 353.310 91.781 M80.229 156.875 C 107.038 177.775,128.979 194.961,128.986 195.066 C 129.001 195.278,32.607 294.081,32.272 294.198 C 32.156 294.238,31.738 293.507,31.343 292.573 L 30.625 290.875 30.561 204.531 C 30.497 118.582,30.499 118.189,30.991 118.531 C 31.263 118.720,53.420 135.975,80.229 156.875 M363.238 290.424 C 362.205 295.438,357.611 300.675,352.821 302.300 L 351.125 302.875 197.802 302.939 C 28.243 303.009,42.678 303.150,39.125 301.390 C 36.103 299.893,31.684 295.165,32.557 294.362 C 32.967 293.984,150.286 210.486,150.496 210.423 C 150.583 210.397,161.044 217.052,173.744 225.214 L 196.834 240.053 197.604 239.666 C 198.028 239.453,208.500 232.761,220.875 224.793 L 243.375 210.307 244.500 211.120 C 253.057 217.298,361.326 294.257,361.382 294.202 C 361.424 294.159,339.710 271.850,313.128 244.625 C 286.546 217.400,264.871 195.051,264.961 194.960 C 265.051 194.869,287.231 177.558,314.250 156.490 L 363.375 118.185 363.440 203.655 C 363.486 263.599,363.425 289.513,363.238 290.424 " stroke="none" fill="#000000" fill-rule="evenodd"></path><path id="path4" d="M40.777 60.785 C 19.961 62.970,3.460 78.905,0.391 99.782 C -0.093 103.073,-0.216 289.401,0.263 293.257 C 2.959 314.952,20.251 331.479,42.099 333.240 C 46.436 333.590,347.609 333.596,351.875 333.246 C 372.897 331.524,389.100 316.803,393.422 295.500 C 393.956 292.866,394.272 106.819,393.751 101.625 C 391.681 80.994,376.662 64.967,355.750 61.072 C 353.109 60.580,45.398 60.299,40.777 60.785 M353.310 91.781 C 360.619 94.624,363.489 99.442,363.496 108.880 L 363.500 113.635 280.235 158.578 L 196.970 203.521 113.735 158.595 L 30.500 113.668 30.500 108.597 C 30.500 98.813,34.673 92.731,42.375 91.289 C 43.144 91.145,102.838 91.068,197.625 91.090 L 351.625 91.125 353.310 91.781 M80.229 156.875 C 107.038 177.775,128.979 194.961,128.986 195.066 C 129.001 195.278,32.607 294.081,32.272 294.198 C 32.156 294.238,31.738 293.507,31.343 292.573 L 30.625 290.875 30.561 204.531 C 30.497 118.582,30.499 118.189,30.991 118.531 C 31.263 118.720,53.420 135.975,80.229 156.875 M363.238 290.424 C 362.205 295.438,357.611 300.675,352.821 302.300 L 351.125 302.875 197.802 302.939 C 28.243 303.009,42.678 303.150,39.125 301.390 C 36.103 299.893,31.684 295.165,32.557 294.362 C 32.967 293.984,150.286 210.486,150.496 210.423 C 150.583 210.397,161.044 217.052,173.744 225.214 L 196.834 240.053 197.604 239.666 C 198.028 239.453,208.500 232.761,220.875 224.793 L 243.375 210.307 244.500 211.120 C 253.057 217.298,361.326 294.257,361.382 294.202 C 361.424 294.159,339.710 271.850,313.128 244.625 C 286.546 217.400,264.871 195.051,264.961 194.960 C 265.051 194.869,287.231 177.558,314.250 156.490 L 363.375 118.185 363.440 203.655 C 363.486 263.599,363.425 289.513,363.238 290.424 " stroke="none" fill="#000000" fill-rule="evenodd"></path></g></svg>