<?xml version="1.0" encoding="UTF-8" standalone="no"?>
<svg
   xmlns:dc="http://purl.org/dc/elements/1.1/"
   xmlns:cc="http://creativecommons.org/ns#"
   xmlns:rdf="http://www.w3.org/1999/02/22-rdf-syntax-ns#"
   xmlns:svg="http://www.w3.org/2000/svg"
   xmlns="http://www.w3.org/2000/svg"
   xmlns:sodipodi="http://sodipodi.sourceforge.net/DTD/sodipodi-0.dtd"
   xmlns:inkscape="http://www.inkscape.org/namespaces/inkscape"
   width="5.91111in"
   height="5.91111in"
   viewBox="0 0 532 532"
   version="1.1"
   id="svg3737"
   sodipodi:docname="reddit.svg"
   inkscape:version="0.92.2 (5c3e80d, 2017-08-06)">
  <metadata
     id="metadata3743">
    <rdf:RDF>
      <cc:Work
         rdf:about="">
        <dc:format>image/svg+xml</dc:format>
        <dc:type
           rdf:resource="http://purl.org/dc/dcmitype/StillImage" />
        <dc:title></dc:title>
      </cc:Work>
    </rdf:RDF>
  </metadata>
  <defs
     id="defs3741" />
  <sodipodi:namedview
     pagecolor="#ffffff"
     bordercolor="#666666"
     borderopacity="1"
     objecttolerance="10"
     gridtolerance="10"
     guidetolerance="10"
     inkscape:pageopacity="0"
     inkscape:pageshadow="2"
     inkscape:window-width="1366"
     inkscape:window-height="705"
     id="namedview3739"
     showgrid="false"
     inkscape:zoom="0.41588354"
     inkscape:cx="283.73328"
     inkscape:cy="283.73328"
     inkscape:window-x="-8"
     inkscape:window-y="-8"
     inkscape:window-maximized="1"
     inkscape:current-layer="svg3737" />
  <path
     id="Chemin importé"
     fill="none"
     stroke="black"
     stroke-width="1"
     d="M 471.11,307.25            C 471.84,312.34 472.25,317.43 472.25,322.63              472.25,401.49 379.88,465.50 266.00,465.50              152.12,465.50 59.75,401.49 59.64,322.73              59.64,317.54 60.06,312.45 60.89,307.35              44.16,298.73 32.73,281.17 32.73,260.80              32.73,232.02 55.80,208.64 84.16,208.64              97.67,208.64 109.93,213.84 119.08,222.46              153.57,198.25 200.54,182.46 252.80,180.17              252.80,180.17 255.40,180.07 255.40,180.07              255.40,180.07 287.40,73.05 287.40,73.05              287.40,73.05 380.61,91.75 380.61,91.75              388.40,76.68 403.78,66.50 421.65,66.50              421.65,66.50 421.76,66.50 421.76,66.50              421.86,66.50 421.86,66.50 421.96,66.50              447.52,66.50 468.31,87.49 468.31,113.36              468.31,139.23 447.63,160.22 422.07,160.22              421.96,160.22 421.96,160.22 421.86,160.22              421.76,160.22 421.76,160.22 421.65,160.22              397.65,160.22 378.01,141.83 375.62,118.25              375.62,118.25 305.90,104.22 305.90,104.22              305.90,104.22 283.14,180.28 283.14,180.28              333.85,183.19 379.26,198.77 412.92,222.46              422.17,213.84 434.33,208.64 447.84,208.64              476.20,208.64 499.27,232.02 499.27,260.80              499.27,281.07 487.84,298.63 471.11,307.25 Z            M 98.30,239.30            C 93.93,235.97 88.53,234.00 82.71,234.00              68.58,234.00 57.04,245.74 57.04,260.08              57.04,269.12 61.51,277.01 68.37,281.69              73.88,266.00 84.27,251.66 98.30,239.30 Z            M 421.65,130.82            C 431.11,130.82 438.80,122.92 438.80,113.36              438.80,103.70 431.11,95.91 421.65,95.91              412.20,95.91 404.51,103.80 404.51,113.36              404.51,123.03 412.20,130.82 421.65,130.82 Z            M 197.73,332.71            C 216.02,332.71 230.78,317.95 230.78,299.67              230.78,281.38 216.02,266.62 197.73,266.62              179.45,266.62 164.69,281.38 164.69,299.67              164.69,317.95 179.45,332.71 197.73,332.71 Z            M 346.11,384.76            C 346.11,384.76 333.02,371.88 333.02,371.88              332.71,372.09 307.87,397.03 266.00,397.23              223.50,397.03 199.08,372.09 198.88,371.88              198.88,371.88 185.78,384.76 185.78,384.76              187.03,386.01 216.54,415.42 266.00,415.63              315.46,415.42 344.86,386.01 346.11,384.76 Z            M 367.93,299.67            C 367.93,281.38 353.18,266.62 334.89,266.62              316.60,266.62 301.85,281.38 301.85,299.67              301.85,317.95 316.60,332.71 334.89,332.71              353.07,332.71 367.93,317.95 367.93,299.67 Z            M 475.27,260.18            C 475.27,245.53 463.63,233.69 449.19,233.69              443.26,233.69 437.76,235.66 433.39,239.09              447.63,251.56 458.23,266.21 463.84,282.11              470.80,277.33 475.37,269.32 475.27,260.18 Z" />
  <path
     style="stroke-width:2.40451932"
     d="M 233.06696,490.73452 C 177.88963,481.45788 133.27167,459.33393 101.44483,425.4693 76.570128,399.00192 65.402925,372.97328 65.402925,341.46239 c 0,-14.21725 -0.363352,-15.11593 -8.674571,-21.45521 -10.986463,-8.3798 -20.125024,-27.59042 -20.156171,-42.3713 -0.03244,-15.3956 10.362971,-34.71991 23.73198,-44.116 9.327018,-6.55527 12.115428,-7.25461 28.925555,-7.25461 16.067452,0 19.907242,0.86278 28.167302,6.32903 l 9.56382,6.32903 14.30578,-8.47319 c 31.0433,-18.38668 66.43452,-29.7431 108.12209,-34.69448 l 24.64921,-2.92767 16.4132,-55.08496 c 9.02726,-30.29673 17.54157,-55.517954 18.92066,-56.047167 1.37911,-0.529213 23.60418,3.286623 49.38904,8.479636 l 46.88158,9.44184 6.84502,-8.28027 c 20.25565,-24.50285 57.63462,-23.646786 76.02556,1.741157 14.00816,19.337684 11.75334,44.004934 -5.60957,61.367844 -23.39761,23.39759 -60.02808,17.71632 -74.62404,-11.57397 -3.43406,-6.89126 -6.24374,-13.78179 -6.24374,-15.31227 0,-3.84268 -74.921,-18.78353 -77.03532,-15.36249 -2.35573,3.81165 -24.56358,79.40332 -23.59372,80.30894 0.46282,0.43217 12.20284,2.45207 26.08894,4.48867 39.13612,5.73989 82.61644,21.34919 106.52919,38.24365 6.00575,4.24309 7.18685,4.37304 10.82034,1.19044 18.43377,-16.14626 50.14113,-14.95064 68.61979,2.58751 23.76918,22.55936 22.21833,58.68786 -3.46282,80.66996 -8.91925,7.63457 -9.85367,9.41363 -8.49979,16.18309 2.50467,12.52334 -2.81121,38.31268 -11.60651,56.3075 -24.60307,50.33685 -87.96225,88.94966 -163.60246,99.70377 -22.92152,3.25887 -70.50437,2.67376 -93.22631,-1.14635 z m 84.9752,-50.7374 c 15.66833,-4.6514 36.80574,-15.25516 46.72342,-23.43918 l 7.21355,-5.95261 -7.06229,-7.41073 c -3.88426,-4.0759 -7.95126,-7.41072 -9.03777,-7.41072 -1.0865,0 -6.40804,3.21094 -11.82564,7.13541 -35.72122,25.87633 -86.41659,24.68104 -125.59087,-2.96117 l -6.8409,-4.82707 -7.58622,7.70377 -7.58621,7.70379 8.41581,7.17677 c 9.86137,8.40951 33.86845,20.36125 47.17291,23.48467 15.75552,3.69885 51.69915,3.04379 66.00421,-1.20293 z M 226.45659,351.9014 c 15.06559,-7.69814 20.48754,-16.12973 20.48754,-31.85988 0,-21.60836 -14.45943,-36.06779 -36.06779,-36.06779 -21.55643,0 -36.14954,14.53378 -35.94909,35.80293 0.1472,15.61961 7.21633,26.56446 21.28409,32.95326 12.83312,5.8281 17.46635,5.70117 30.24525,-0.82852 z m 146.81644,0 c 14.38634,-7.2546 22.81891,-23.23869 20.25767,-38.39868 -2.25229,-13.33112 -15.61404,-27.22048 -28.51474,-29.64066 -36.36617,-6.82234 -59.19835,36.50647 -32.58023,61.8277 13.36374,12.71259 24.56635,14.4166 40.8373,6.21164 z M 78.863727,291.81375 c 2.515201,-5.60662 9.718124,-16.38602 16.006497,-23.9542 10.691726,-12.8677 11.130926,-13.92222 6.770506,-16.25584 -2.564597,-1.37253 -8.97915,-2.49551 -14.254567,-2.49551 -23.676128,0 -36.616087,30.59279 -20.481135,48.42171 5.704121,6.30298 6.802241,5.77809 11.958699,-5.71616 z m 424.188063,2.37919 c 10.59975,-17.38486 2.70446,-39.7084 -15.85641,-44.83331 -7.67436,-2.11899 -18.54245,-0.66454 -25.03975,3.35101 -1.52206,0.94069 2.22908,6.81216 9.28313,14.53042 6.51052,7.12353 14.21335,17.86018 17.11743,23.85922 2.90409,5.99904 6.28157,10.90734 7.50552,10.90734 1.22397,0 4.36949,-3.51661 6.99008,-7.81468 z M 463.46015,135.00283 c 14.0795,-14.07949 1.11796,-38.003024 -18.28122,-33.74225 -9.09663,1.99796 -14.28907,9.54496 -14.28907,20.7686 0,16.9288 20.46383,25.08012 32.57029,12.97365 z"
     id="path3745"
     inkscape:connector-curvature="0"
     transform="scale(0.93750019)" />
</svg>
