<?xml version="1.0" encoding="UTF-8" standalone="no"?>
<svg
   xmlns:dc="http://purl.org/dc/elements/1.1/"
   xmlns:cc="http://creativecommons.org/ns#"
   xmlns:rdf="http://www.w3.org/1999/02/22-rdf-syntax-ns#"
   xmlns:svg="http://www.w3.org/2000/svg"
   xmlns="http://www.w3.org/2000/svg"
   xmlns:sodipodi="http://sodipodi.sourceforge.net/DTD/sodipodi-0.dtd"
   xmlns:inkscape="http://www.inkscape.org/namespaces/inkscape"
   width="5.91111in"
   height="5.91111in"
   viewBox="0 0 532 532"
   version="1.1"
   id="svg3757"
   sodipodi:docname="stack-overflow.svg"
   inkscape:version="0.92.2 (5c3e80d, 2017-08-06)">
  <metadata
     id="metadata3763">
    <rdf:RDF>
      <cc:Work
         rdf:about="">
        <dc:format>image/svg+xml</dc:format>
        <dc:type
           rdf:resource="http://purl.org/dc/dcmitype/StillImage" />
        <dc:title></dc:title>
      </cc:Work>
    </rdf:RDF>
  </metadata>
  <defs
     id="defs3761" />
  <sodipodi:namedview
     pagecolor="#ffffff"
     bordercolor="#666666"
     borderopacity="1"
     objecttolerance="10"
     gridtolerance="10"
     guidetolerance="10"
     inkscape:pageopacity="0"
     inkscape:pageshadow="2"
     inkscape:window-width="1366"
     inkscape:window-height="705"
     id="namedview3759"
     showgrid="false"
     inkscape:zoom="0.41588354"
     inkscape:cx="283.73328"
     inkscape:cy="283.73328"
     inkscape:window-x="-8"
     inkscape:window-y="-8"
     inkscape:window-maximized="1"
     inkscape:current-layer="svg3757" />
  <path
     id="Chemin importé"
     fill="none"
     stroke="black"
     stroke-width="1"
     d="M 332.00,417.16            C 262.15,417.16 192.81,417.16 123.54,417.16              123.54,432.15 123.54,446.67 123.54,461.23              193.27,461.23 262.47,461.23 332.00,461.23              332.00,446.05 332.00,431.52 332.00,417.16 Z            M 376.64,249.91            C 316.24,214.25 256.54,178.99 196.35,143.45              188.64,156.54 181.26,169.07 173.64,182.01              233.90,217.60 293.63,252.87 353.96,288.50              361.74,275.26 369.10,262.73 376.64,249.91 Z            M 130.19,340.18            C 128.81,355.24 127.49,369.74 126.12,384.76              195.93,391.20 264.98,397.57 334.51,403.99              335.91,388.92 337.25,374.58 338.67,359.43              268.88,352.98 199.84,346.61 130.19,340.18 Z            M 148.77,246.42            C 144.85,260.98 141.07,275.04 137.13,289.66              204.63,307.83 271.67,325.88 339.27,344.08              343.20,329.51 346.98,315.46 350.92,300.84              283.37,282.65 216.33,264.61 148.77,246.42 Z            M 303.63,43.52            C 291.13,52.05 279.12,60.26 266.69,68.75              306.14,126.68 345.30,184.17 384.65,241.94              397.07,233.46 409.10,225.23 421.60,216.69              382.05,158.63 342.99,101.30 303.63,43.52 Z            M 438.01,0.00            C 423.02,2.60 408.70,5.08 393.95,7.64              405.95,76.84 417.85,145.44 429.77,214.18              444.87,211.55 458.84,209.11 473.81,206.50              461.84,137.42 449.97,68.95 438.01,0.00 Z            M 93.33,314.64            C 81.02,314.64 69.53,314.64 58.19,314.64              58.19,387.39 58.19,459.64 58.19,532.00              173.53,532.00 288.41,532.00 403.35,532.00              403.35,459.22 403.35,386.95 403.35,314.62              391.49,314.62 380.00,314.62 367.88,314.62              367.88,375.50 367.88,435.91 367.88,496.68              276.21,496.68 185.18,496.68 93.33,496.68              93.33,435.82 93.33,375.26 93.33,314.64 Z" />
  <path
     style="stroke-width:2.40451932"
     d="M 62.998405,452.29008 V 338.07541 H 81.0323 99.066195 v 96.18077 96.18078 H 246.94413 394.82207 v -96.18078 -96.18077 h 16.83163 16.83164 V 452.29008 566.50475 H 245.74187 62.998405 Z"
     id="path3765"
     inkscape:connector-curvature="0"
     transform="scale(0.93750019)" />
  <path
     style="stroke-width:2.40451932"
     d="m 132.72946,467.91945 v -21.64067 h 109.40563 109.40563 v 21.64067 21.64068 H 242.13509 132.72946 Z"
     id="path3767"
     inkscape:connector-curvature="0"
     transform="scale(0.93750019)" />
  <path
     style="stroke-width:2.40451932"
     d="m 242.41691,418.96849 -105.51703,-9.90558 1.52397,-21.46978 c 0.83818,-11.80838 1.84758,-21.7934 2.2431,-22.18892 0.8309,-0.8309 216.48184,18.66461 217.68269,19.67918 0.43869,0.37064 0.0286,10.50411 -0.91127,22.51882 -1.40956,18.01843 -2.39166,21.79474 -5.60666,21.5584 -2.14378,-0.1576 -51.38043,-4.74405 -109.4148,-10.19212 z"
     id="path3769"
     inkscape:connector-curvature="0"
     transform="scale(0.93750019)" />
  <path
     style="stroke-width:2.40451932"
     d="m 252.95543,336.28655 c -56.20564,-15.24651 -102.6382,-28.10972 -103.18346,-28.58491 -1.05163,-0.91649 8.85658,-39.60816 10.58569,-41.33728 0.55913,-0.55913 48.49731,11.75583 106.52928,27.36657 l 105.51267,28.38317 -3.09013,10.9863 c -1.69958,6.04247 -4.27047,15.58495 -5.71309,21.20552 -1.44262,5.62056 -3.93379,10.10273 -5.53592,9.96037 -1.60213,-0.14235 -48.8994,-12.73324 -105.10504,-27.97974 z"
     id="path3771"
     inkscape:connector-curvature="0"
     transform="scale(0.93750019)" />
  <path
     style="stroke-width:2.40451932"
     d="m 283.01192,250.03928 c -50.25445,-29.76586 -92.1451,-54.88213 -93.09032,-55.81394 -2.07599,-2.04652 18.92905,-37.89337 21.8052,-37.21239 1.4842,0.35141 184.25355,107.6758 187.17474,109.91129 1.03586,0.79271 -21.51154,37.47934 -22.96208,37.36135 -0.85569,-0.0696 -42.67309,-24.48044 -92.92754,-54.24631 z"
     id="path3773"
     inkscape:connector-curvature="0"
     transform="scale(0.93750019)" />
  <path
     style="stroke-width:2.40451932"
     d="m 372.79275,200.03065 c -20.71157,-30.53547 -48.55017,-71.4619 -61.86357,-90.94761 L 286.723,73.654461 304.94813,61.356266 c 10.02383,-6.764007 19.03846,-11.379789 20.03252,-10.257292 1.65546,1.869348 109.06067,159.582656 118.36252,173.802966 l 4.03749,6.17236 -18.46526,12.2377 -18.46526,12.2377 z"
     id="path3775"
     inkscape:connector-curvature="0"
     transform="scale(0.93750019)" />
  <path
     style="stroke-width:2.40451932"
     d="m 459.62589,225.30932 c -0.065,-0.79672 -8.51756,-49.59907 -18.78344,-108.44968 L 422.1772,9.8585291 437.955,6.9355767 c 8.67778,-1.6076236 18.51384,-3.4262241 21.85791,-4.0413343 l 6.08012,-1.118382 18.74073,108.2630196 c 10.3074,59.54466 18.39169,108.52487 17.96508,108.84491 -2.10844,1.58174 -42.87085,7.67674 -42.97295,6.42553 z"
     id="path3777"
     inkscape:connector-curvature="0"
     transform="scale(0.93750019)" />
</svg>
